<mxfile host="app.diagrams.net" modified="2024-04-16T13:00:47.094Z" agent="Mozilla/5.0 (Macintosh; Intel Mac OS X 10_15_7) AppleWebKit/605.1.15 (KHTML, like Gecko) Version/17.1 Safari/605.1.15" etag="hQ7bDIVsw_YgUV818tai" version="24.2.5" type="github">
  <diagram name="Page-1" id="D6gG2VO30LMcb04ZI-GH">
    <mxGraphModel dx="2708" dy="2494" grid="0" gridSize="10" guides="1" tooltips="1" connect="1" arrows="1" fold="1" page="0" pageScale="1" pageWidth="827" pageHeight="1169" math="0" shadow="0">
      <root>
        <mxCell id="0" />
        <mxCell id="1" parent="0" />
        <mxCell id="WySLw5p9huwhJXmqN-Hj-6" style="edgeStyle=orthogonalEdgeStyle;rounded=0;orthogonalLoop=1;jettySize=auto;html=1;" parent="1" edge="1">
          <mxGeometry relative="1" as="geometry">
            <mxPoint x="-506" y="-806.9999999999982" as="sourcePoint" />
            <mxPoint x="-506.4000000000001" y="-774" as="targetPoint" />
          </mxGeometry>
        </mxCell>
        <mxCell id="WySLw5p9huwhJXmqN-Hj-121" value="display &quot; pilih makanan:&amp;nbsp;&lt;div&gt;1. indomie&amp;nbsp;&lt;/div&gt;&lt;div&gt;2. nasi goreng&amp;nbsp;&lt;/div&gt;&lt;div&gt;3. mie ayam &amp;nbsp;&lt;/div&gt;" style="strokeWidth=2;html=1;shape=mxgraph.flowchart.display;whiteSpace=wrap;" parent="1" vertex="1">
          <mxGeometry x="414" y="-867" width="206" height="75" as="geometry" />
        </mxCell>
        <mxCell id="WySLw5p9huwhJXmqN-Hj-122" style="edgeStyle=orthogonalEdgeStyle;rounded=0;orthogonalLoop=1;jettySize=auto;html=1;exitX=0.5;exitY=1;exitDx=0;exitDy=0;exitPerimeter=0;entryX=0.5;entryY=0;entryDx=0;entryDy=0;" parent="1" target="WySLw5p9huwhJXmqN-Hj-123" edge="1">
          <mxGeometry relative="1" as="geometry">
            <mxPoint x="517" y="-792" as="sourcePoint" />
          </mxGeometry>
        </mxCell>
        <mxCell id="WySLw5p9huwhJXmqN-Hj-123" value="Accept nMakanan" style="shape=parallelogram;html=1;strokeWidth=2;perimeter=parallelogramPerimeter;whiteSpace=wrap;rounded=1;arcSize=12;size=0.23;" parent="1" vertex="1">
          <mxGeometry x="423.5" y="-762" width="187" height="53" as="geometry" />
        </mxCell>
        <mxCell id="WySLw5p9huwhJXmqN-Hj-124" style="edgeStyle=orthogonalEdgeStyle;rounded=0;orthogonalLoop=1;jettySize=auto;html=1;entryX=0.5;entryY=0;entryDx=0;entryDy=0;entryPerimeter=0;" parent="1" source="WySLw5p9huwhJXmqN-Hj-123" edge="1">
          <mxGeometry relative="1" as="geometry">
            <mxPoint x="517" y="-676" as="targetPoint" />
          </mxGeometry>
        </mxCell>
        <mxCell id="WySLw5p9huwhJXmqN-Hj-125" style="edgeStyle=orthogonalEdgeStyle;rounded=0;orthogonalLoop=1;jettySize=auto;html=1;" parent="1" source="WySLw5p9huwhJXmqN-Hj-126" edge="1">
          <mxGeometry relative="1" as="geometry">
            <mxPoint x="515.5714285714287" y="-782" as="targetPoint" />
          </mxGeometry>
        </mxCell>
        <mxCell id="WySLw5p9huwhJXmqN-Hj-126" value="" style="verticalLabelPosition=bottom;verticalAlign=top;html=1;shape=mxgraph.flowchart.on-page_reference;fillColor=#a0522d;strokeColor=#6D1F00;fontColor=#ffffff;" parent="1" vertex="1">
          <mxGeometry x="280" y="-812" width="60" height="60" as="geometry" />
        </mxCell>
        <mxCell id="WySLw5p9huwhJXmqN-Hj-127" style="edgeStyle=orthogonalEdgeStyle;rounded=0;orthogonalLoop=1;jettySize=auto;html=1;entryX=0;entryY=0.5;entryDx=0;entryDy=0;" parent="1" source="WySLw5p9huwhJXmqN-Hj-128" target="WySLw5p9huwhJXmqN-Hj-142" edge="1">
          <mxGeometry relative="1" as="geometry" />
        </mxCell>
        <mxCell id="WySLw5p9huwhJXmqN-Hj-128" value="if nMakanan = 1" style="strokeWidth=2;html=1;shape=mxgraph.flowchart.decision;whiteSpace=wrap;" parent="1" vertex="1">
          <mxGeometry x="406" y="-674" width="226.63" height="87" as="geometry" />
        </mxCell>
        <mxCell id="WySLw5p9huwhJXmqN-Hj-129" style="edgeStyle=orthogonalEdgeStyle;rounded=0;orthogonalLoop=1;jettySize=auto;html=1;exitX=1;exitY=0.5;exitDx=0;exitDy=0;exitPerimeter=0;" parent="1" source="WySLw5p9huwhJXmqN-Hj-130" target="WySLw5p9huwhJXmqN-Hj-146" edge="1">
          <mxGeometry relative="1" as="geometry" />
        </mxCell>
        <mxCell id="WySLw5p9huwhJXmqN-Hj-130" value="if nMakanan = 2" style="strokeWidth=2;html=1;shape=mxgraph.flowchart.decision;whiteSpace=wrap;" parent="1" vertex="1">
          <mxGeometry x="406" y="-543" width="226.63" height="87" as="geometry" />
        </mxCell>
        <mxCell id="WySLw5p9huwhJXmqN-Hj-131" style="edgeStyle=orthogonalEdgeStyle;rounded=0;orthogonalLoop=1;jettySize=auto;html=1;" parent="1" source="WySLw5p9huwhJXmqN-Hj-132" target="WySLw5p9huwhJXmqN-Hj-144" edge="1">
          <mxGeometry relative="1" as="geometry" />
        </mxCell>
        <mxCell id="WySLw5p9huwhJXmqN-Hj-132" value="if nMakanan = 3" style="strokeWidth=2;html=1;shape=mxgraph.flowchart.decision;whiteSpace=wrap;" parent="1" vertex="1">
          <mxGeometry x="406" y="-405" width="226.63" height="87" as="geometry" />
        </mxCell>
        <mxCell id="WySLw5p9huwhJXmqN-Hj-133" style="edgeStyle=orthogonalEdgeStyle;rounded=0;orthogonalLoop=1;jettySize=auto;html=1;exitX=0.5;exitY=1;exitDx=0;exitDy=0;exitPerimeter=0;entryX=0.5;entryY=0;entryDx=0;entryDy=0;entryPerimeter=0;" parent="1" source="WySLw5p9huwhJXmqN-Hj-128" target="WySLw5p9huwhJXmqN-Hj-130" edge="1">
          <mxGeometry relative="1" as="geometry" />
        </mxCell>
        <mxCell id="WySLw5p9huwhJXmqN-Hj-134" value="no" style="edgeLabel;html=1;align=center;verticalAlign=middle;resizable=0;points=[];" parent="WySLw5p9huwhJXmqN-Hj-133" vertex="1" connectable="0">
          <mxGeometry x="-0.3939" y="2" relative="1" as="geometry">
            <mxPoint as="offset" />
          </mxGeometry>
        </mxCell>
        <mxCell id="WySLw5p9huwhJXmqN-Hj-135" style="edgeStyle=orthogonalEdgeStyle;rounded=0;orthogonalLoop=1;jettySize=auto;html=1;exitX=0.5;exitY=1;exitDx=0;exitDy=0;exitPerimeter=0;entryX=0.5;entryY=0;entryDx=0;entryDy=0;entryPerimeter=0;" parent="1" source="WySLw5p9huwhJXmqN-Hj-130" target="WySLw5p9huwhJXmqN-Hj-132" edge="1">
          <mxGeometry relative="1" as="geometry" />
        </mxCell>
        <mxCell id="WySLw5p9huwhJXmqN-Hj-136" value="no" style="edgeLabel;html=1;align=center;verticalAlign=middle;resizable=0;points=[];" parent="WySLw5p9huwhJXmqN-Hj-135" vertex="1" connectable="0">
          <mxGeometry x="-0.1242" y="1" relative="1" as="geometry">
            <mxPoint y="1" as="offset" />
          </mxGeometry>
        </mxCell>
        <mxCell id="WySLw5p9huwhJXmqN-Hj-138" style="edgeStyle=orthogonalEdgeStyle;rounded=0;orthogonalLoop=1;jettySize=auto;html=1;exitX=0.5;exitY=1;exitDx=0;exitDy=0;exitPerimeter=0;entryX=0.5;entryY=0;entryDx=0;entryDy=0;entryPerimeter=0;" parent="1" source="WySLw5p9huwhJXmqN-Hj-132" edge="1">
          <mxGeometry relative="1" as="geometry">
            <mxPoint x="519.3200000000002" y="-252.00000000000023" as="targetPoint" />
          </mxGeometry>
        </mxCell>
        <mxCell id="WySLw5p9huwhJXmqN-Hj-139" value="no&amp;nbsp;" style="edgeLabel;html=1;align=center;verticalAlign=middle;resizable=0;points=[];" parent="WySLw5p9huwhJXmqN-Hj-138" vertex="1" connectable="0">
          <mxGeometry x="-0.0606" y="-1" relative="1" as="geometry">
            <mxPoint y="-1" as="offset" />
          </mxGeometry>
        </mxCell>
        <mxCell id="WySLw5p9huwhJXmqN-Hj-141" style="edgeStyle=orthogonalEdgeStyle;rounded=0;orthogonalLoop=1;jettySize=auto;html=1;" parent="1" source="WySLw5p9huwhJXmqN-Hj-142" target="WySLw5p9huwhJXmqN-Hj-151" edge="1">
          <mxGeometry relative="1" as="geometry">
            <mxPoint x="1211" y="-244.5" as="targetPoint" />
          </mxGeometry>
        </mxCell>
        <mxCell id="WySLw5p9huwhJXmqN-Hj-142" value="nTarif2 = 5000" style="rounded=1;whiteSpace=wrap;html=1;absoluteArcSize=1;arcSize=14;strokeWidth=2;" parent="1" vertex="1">
          <mxGeometry x="791" y="-669.75" width="223" height="78.5" as="geometry" />
        </mxCell>
        <mxCell id="WySLw5p9huwhJXmqN-Hj-144" value="nTarif2= 12000" style="rounded=1;whiteSpace=wrap;html=1;absoluteArcSize=1;arcSize=14;strokeWidth=2;" parent="1" vertex="1">
          <mxGeometry x="791" y="-400.75" width="223" height="78.5" as="geometry" />
        </mxCell>
        <mxCell id="WySLw5p9huwhJXmqN-Hj-146" value="nTarif2= 10000" style="rounded=1;whiteSpace=wrap;html=1;absoluteArcSize=1;arcSize=14;strokeWidth=2;" parent="1" vertex="1">
          <mxGeometry x="791" y="-538.75" width="223" height="78.5" as="geometry" />
        </mxCell>
        <mxCell id="WySLw5p9huwhJXmqN-Hj-149" value="D" style="text;html=1;align=center;verticalAlign=middle;resizable=0;points=[];autosize=1;strokeColor=none;fillColor=none;" parent="1" vertex="1">
          <mxGeometry x="299" y="-754" width="27" height="26" as="geometry" />
        </mxCell>
        <mxCell id="WySLw5p9huwhJXmqN-Hj-151" value="" style="verticalLabelPosition=bottom;verticalAlign=top;html=1;shape=offPageConnector;rounded=0;size=0.49761904761904713;fillColor=#d5e8d4;strokeColor=#82b366;" parent="1" vertex="1">
          <mxGeometry x="1180" y="-11" width="60" height="60" as="geometry" />
        </mxCell>
        <mxCell id="WySLw5p9huwhJXmqN-Hj-153" style="edgeStyle=orthogonalEdgeStyle;rounded=0;orthogonalLoop=1;jettySize=auto;html=1;" parent="1" source="WySLw5p9huwhJXmqN-Hj-152" target="WySLw5p9huwhJXmqN-Hj-121" edge="1">
          <mxGeometry relative="1" as="geometry" />
        </mxCell>
        <mxCell id="WySLw5p9huwhJXmqN-Hj-152" value="" style="verticalLabelPosition=bottom;verticalAlign=top;html=1;shape=offPageConnector;rounded=0;size=0.49761904761904713;fillColor=#dae8fc;strokeColor=#6c8ebf;" parent="1" vertex="1">
          <mxGeometry x="487" y="-1026" width="60" height="60" as="geometry" />
        </mxCell>
        <mxCell id="WySLw5p9huwhJXmqN-Hj-156" value="C" style="text;html=1;align=center;verticalAlign=middle;resizable=0;points=[];autosize=1;strokeColor=none;fillColor=none;" parent="1" vertex="1">
          <mxGeometry x="505" y="-1067" width="27" height="26" as="geometry" />
        </mxCell>
        <mxCell id="WySLw5p9huwhJXmqN-Hj-158" value="E" style="text;html=1;align=center;verticalAlign=middle;resizable=0;points=[];autosize=1;strokeColor=none;fillColor=none;" parent="1" vertex="1">
          <mxGeometry x="1197" y="49" width="26" height="26" as="geometry" />
        </mxCell>
        <mxCell id="WySLw5p9huwhJXmqN-Hj-159" value="display &quot; pilih minuman;&lt;div&gt;1. air mineral&lt;/div&gt;&lt;div&gt;2. teh botol&lt;div&gt;3. kopi&amp;nbsp;&lt;/div&gt;&lt;/div&gt;" style="strokeWidth=2;html=1;shape=mxgraph.flowchart.display;whiteSpace=wrap;" parent="1" vertex="1">
          <mxGeometry x="1428" y="-882.75" width="206" height="75" as="geometry" />
        </mxCell>
        <mxCell id="WySLw5p9huwhJXmqN-Hj-160" style="edgeStyle=orthogonalEdgeStyle;rounded=0;orthogonalLoop=1;jettySize=auto;html=1;exitX=0.5;exitY=1;exitDx=0;exitDy=0;exitPerimeter=0;entryX=0.5;entryY=0;entryDx=0;entryDy=0;" parent="1" target="WySLw5p9huwhJXmqN-Hj-161" edge="1">
          <mxGeometry relative="1" as="geometry">
            <mxPoint x="1531" y="-807.75" as="sourcePoint" />
          </mxGeometry>
        </mxCell>
        <mxCell id="WySLw5p9huwhJXmqN-Hj-161" value="Accept nMinuman&amp;nbsp;" style="shape=parallelogram;html=1;strokeWidth=2;perimeter=parallelogramPerimeter;whiteSpace=wrap;rounded=1;arcSize=12;size=0.23;" parent="1" vertex="1">
          <mxGeometry x="1437.5" y="-777.75" width="187" height="53" as="geometry" />
        </mxCell>
        <mxCell id="WySLw5p9huwhJXmqN-Hj-162" style="edgeStyle=orthogonalEdgeStyle;rounded=0;orthogonalLoop=1;jettySize=auto;html=1;entryX=0.5;entryY=0;entryDx=0;entryDy=0;entryPerimeter=0;" parent="1" source="WySLw5p9huwhJXmqN-Hj-161" edge="1">
          <mxGeometry relative="1" as="geometry">
            <mxPoint x="1531" y="-691.75" as="targetPoint" />
          </mxGeometry>
        </mxCell>
        <mxCell id="WySLw5p9huwhJXmqN-Hj-163" style="edgeStyle=orthogonalEdgeStyle;rounded=0;orthogonalLoop=1;jettySize=auto;html=1;" parent="1" source="WySLw5p9huwhJXmqN-Hj-164" edge="1">
          <mxGeometry relative="1" as="geometry">
            <mxPoint x="1529.5714285714287" y="-797.75" as="targetPoint" />
          </mxGeometry>
        </mxCell>
        <mxCell id="WySLw5p9huwhJXmqN-Hj-164" value="" style="verticalLabelPosition=bottom;verticalAlign=top;html=1;shape=mxgraph.flowchart.on-page_reference;fillColor=#fff2cc;strokeColor=#d6b656;" parent="1" vertex="1">
          <mxGeometry x="1294" y="-827.75" width="60" height="60" as="geometry" />
        </mxCell>
        <mxCell id="WySLw5p9huwhJXmqN-Hj-165" style="edgeStyle=orthogonalEdgeStyle;rounded=0;orthogonalLoop=1;jettySize=auto;html=1;entryX=0;entryY=0.5;entryDx=0;entryDy=0;" parent="1" source="WySLw5p9huwhJXmqN-Hj-166" target="WySLw5p9huwhJXmqN-Hj-180" edge="1">
          <mxGeometry relative="1" as="geometry" />
        </mxCell>
        <mxCell id="WySLw5p9huwhJXmqN-Hj-166" value="if nMinuman = 1" style="strokeWidth=2;html=1;shape=mxgraph.flowchart.decision;whiteSpace=wrap;" parent="1" vertex="1">
          <mxGeometry x="1420" y="-689.75" width="226.63" height="87" as="geometry" />
        </mxCell>
        <mxCell id="WySLw5p9huwhJXmqN-Hj-167" style="edgeStyle=orthogonalEdgeStyle;rounded=0;orthogonalLoop=1;jettySize=auto;html=1;exitX=1;exitY=0.5;exitDx=0;exitDy=0;exitPerimeter=0;" parent="1" source="WySLw5p9huwhJXmqN-Hj-168" target="WySLw5p9huwhJXmqN-Hj-184" edge="1">
          <mxGeometry relative="1" as="geometry" />
        </mxCell>
        <mxCell id="WySLw5p9huwhJXmqN-Hj-168" value="if nMinuman = 2" style="strokeWidth=2;html=1;shape=mxgraph.flowchart.decision;whiteSpace=wrap;" parent="1" vertex="1">
          <mxGeometry x="1420" y="-558.75" width="226.63" height="87" as="geometry" />
        </mxCell>
        <mxCell id="WySLw5p9huwhJXmqN-Hj-169" style="edgeStyle=orthogonalEdgeStyle;rounded=0;orthogonalLoop=1;jettySize=auto;html=1;" parent="1" source="WySLw5p9huwhJXmqN-Hj-170" target="WySLw5p9huwhJXmqN-Hj-182" edge="1">
          <mxGeometry relative="1" as="geometry" />
        </mxCell>
        <mxCell id="WySLw5p9huwhJXmqN-Hj-170" value="if nMinuman = 3" style="strokeWidth=2;html=1;shape=mxgraph.flowchart.decision;whiteSpace=wrap;" parent="1" vertex="1">
          <mxGeometry x="1420" y="-420.75" width="226.63" height="87" as="geometry" />
        </mxCell>
        <mxCell id="WySLw5p9huwhJXmqN-Hj-171" style="edgeStyle=orthogonalEdgeStyle;rounded=0;orthogonalLoop=1;jettySize=auto;html=1;exitX=0.5;exitY=1;exitDx=0;exitDy=0;exitPerimeter=0;entryX=0.5;entryY=0;entryDx=0;entryDy=0;entryPerimeter=0;" parent="1" source="WySLw5p9huwhJXmqN-Hj-166" target="WySLw5p9huwhJXmqN-Hj-168" edge="1">
          <mxGeometry relative="1" as="geometry" />
        </mxCell>
        <mxCell id="WySLw5p9huwhJXmqN-Hj-172" value="no" style="edgeLabel;html=1;align=center;verticalAlign=middle;resizable=0;points=[];" parent="WySLw5p9huwhJXmqN-Hj-171" vertex="1" connectable="0">
          <mxGeometry x="-0.3939" y="2" relative="1" as="geometry">
            <mxPoint as="offset" />
          </mxGeometry>
        </mxCell>
        <mxCell id="WySLw5p9huwhJXmqN-Hj-173" style="edgeStyle=orthogonalEdgeStyle;rounded=0;orthogonalLoop=1;jettySize=auto;html=1;exitX=0.5;exitY=1;exitDx=0;exitDy=0;exitPerimeter=0;entryX=0.5;entryY=0;entryDx=0;entryDy=0;entryPerimeter=0;" parent="1" source="WySLw5p9huwhJXmqN-Hj-168" target="WySLw5p9huwhJXmqN-Hj-170" edge="1">
          <mxGeometry relative="1" as="geometry" />
        </mxCell>
        <mxCell id="WySLw5p9huwhJXmqN-Hj-174" value="no" style="edgeLabel;html=1;align=center;verticalAlign=middle;resizable=0;points=[];" parent="WySLw5p9huwhJXmqN-Hj-173" vertex="1" connectable="0">
          <mxGeometry x="-0.1242" y="1" relative="1" as="geometry">
            <mxPoint y="1" as="offset" />
          </mxGeometry>
        </mxCell>
        <mxCell id="WySLw5p9huwhJXmqN-Hj-176" style="edgeStyle=orthogonalEdgeStyle;rounded=0;orthogonalLoop=1;jettySize=auto;html=1;exitX=0.5;exitY=1;exitDx=0;exitDy=0;exitPerimeter=0;entryX=0.5;entryY=0;entryDx=0;entryDy=0;entryPerimeter=0;" parent="1" source="WySLw5p9huwhJXmqN-Hj-170" edge="1">
          <mxGeometry relative="1" as="geometry">
            <mxPoint x="1533.3200000000002" y="-267.7499999999998" as="targetPoint" />
          </mxGeometry>
        </mxCell>
        <mxCell id="WySLw5p9huwhJXmqN-Hj-179" style="edgeStyle=orthogonalEdgeStyle;rounded=0;orthogonalLoop=1;jettySize=auto;html=1;entryX=0.512;entryY=0.14;entryDx=0;entryDy=0;entryPerimeter=0;" parent="1" source="WySLw5p9huwhJXmqN-Hj-180" target="G2V6XdwdjyjFsb4LPoqX-25" edge="1">
          <mxGeometry relative="1" as="geometry">
            <mxPoint x="2225" y="-260.25" as="targetPoint" />
          </mxGeometry>
        </mxCell>
        <mxCell id="WySLw5p9huwhJXmqN-Hj-180" value="nTarif3 = 3000" style="rounded=1;whiteSpace=wrap;html=1;absoluteArcSize=1;arcSize=14;strokeWidth=2;" parent="1" vertex="1">
          <mxGeometry x="1805" y="-685.5" width="223" height="78.5" as="geometry" />
        </mxCell>
        <mxCell id="WySLw5p9huwhJXmqN-Hj-181" style="edgeStyle=orthogonalEdgeStyle;rounded=0;orthogonalLoop=1;jettySize=auto;html=1;" parent="1" source="WySLw5p9huwhJXmqN-Hj-182" edge="1">
          <mxGeometry relative="1" as="geometry">
            <mxPoint x="2225" y="-50" as="targetPoint" />
          </mxGeometry>
        </mxCell>
        <mxCell id="WySLw5p9huwhJXmqN-Hj-182" value="nTarif3 = 6000" style="rounded=1;whiteSpace=wrap;html=1;absoluteArcSize=1;arcSize=14;strokeWidth=2;" parent="1" vertex="1">
          <mxGeometry x="1805" y="-416.5" width="223" height="78.5" as="geometry" />
        </mxCell>
        <mxCell id="WySLw5p9huwhJXmqN-Hj-183" style="edgeStyle=orthogonalEdgeStyle;rounded=0;orthogonalLoop=1;jettySize=auto;html=1;entryX=0.512;entryY=0.305;entryDx=0;entryDy=0;entryPerimeter=0;" parent="1" source="WySLw5p9huwhJXmqN-Hj-184" target="G2V6XdwdjyjFsb4LPoqX-25" edge="1">
          <mxGeometry relative="1" as="geometry">
            <mxPoint x="2225" y="-260.25" as="targetPoint" />
          </mxGeometry>
        </mxCell>
        <mxCell id="WySLw5p9huwhJXmqN-Hj-184" value="nTarif3 =5000" style="rounded=1;whiteSpace=wrap;html=1;absoluteArcSize=1;arcSize=14;strokeWidth=2;" parent="1" vertex="1">
          <mxGeometry x="1805" y="-554.5" width="223" height="78.5" as="geometry" />
        </mxCell>
        <mxCell id="WySLw5p9huwhJXmqN-Hj-187" value="F" style="text;html=1;align=center;verticalAlign=middle;resizable=0;points=[];autosize=1;strokeColor=none;fillColor=none;" parent="1" vertex="1">
          <mxGeometry x="1314" y="-769.75" width="25" height="26" as="geometry" />
        </mxCell>
        <mxCell id="WySLw5p9huwhJXmqN-Hj-190" style="edgeStyle=orthogonalEdgeStyle;rounded=0;orthogonalLoop=1;jettySize=auto;html=1;" parent="1" source="WySLw5p9huwhJXmqN-Hj-191" target="WySLw5p9huwhJXmqN-Hj-159" edge="1">
          <mxGeometry relative="1" as="geometry" />
        </mxCell>
        <mxCell id="WySLw5p9huwhJXmqN-Hj-191" value="" style="verticalLabelPosition=bottom;verticalAlign=top;html=1;shape=offPageConnector;rounded=0;size=0.49761904761904713;fillColor=#d5e8d4;strokeColor=#82b366;" parent="1" vertex="1">
          <mxGeometry x="1501" y="-1041.75" width="60" height="60" as="geometry" />
        </mxCell>
        <mxCell id="WySLw5p9huwhJXmqN-Hj-204" value="start&amp;nbsp;" style="strokeWidth=2;html=1;shape=mxgraph.flowchart.start_1;whiteSpace=wrap;" parent="1" vertex="1">
          <mxGeometry x="-576" y="-857" width="159" height="60" as="geometry" />
        </mxCell>
        <mxCell id="WySLw5p9huwhJXmqN-Hj-212" value="E" style="text;html=1;align=center;verticalAlign=middle;resizable=0;points=[];autosize=1;strokeColor=none;fillColor=none;" parent="1" vertex="1">
          <mxGeometry x="1522" y="-1075" width="26" height="26" as="geometry" />
        </mxCell>
        <mxCell id="WySLw5p9huwhJXmqN-Hj-213" value="F" style="text;html=1;align=center;verticalAlign=middle;resizable=0;points=[];autosize=1;strokeColor=none;fillColor=none;" parent="1" vertex="1">
          <mxGeometry x="2596" y="-1103" width="25" height="26" as="geometry" />
        </mxCell>
        <mxCell id="WySLw5p9huwhJXmqN-Hj-291" style="edgeStyle=orthogonalEdgeStyle;rounded=0;orthogonalLoop=1;jettySize=auto;html=1;exitX=0.5;exitY=1;exitDx=0;exitDy=0;" parent="1" source="WySLw5p9huwhJXmqN-Hj-252" target="WySLw5p9huwhJXmqN-Hj-253" edge="1">
          <mxGeometry relative="1" as="geometry" />
        </mxCell>
        <mxCell id="WySLw5p9huwhJXmqN-Hj-252" value="Character cNomerPc, Numeric nPaket, nTarif1, nMakanan, nTarif2, nMinuman, nTarif3, nTarif4, nTotalTarif" style="rounded=1;whiteSpace=wrap;html=1;absoluteArcSize=1;arcSize=14;strokeWidth=2;" parent="1" vertex="1">
          <mxGeometry x="-604" y="-773" width="192" height="60" as="geometry" />
        </mxCell>
        <mxCell id="WySLw5p9huwhJXmqN-Hj-253" value="print &quot;WARNETKUY!!&quot;&amp;nbsp;" style="strokeWidth=2;html=1;shape=mxgraph.flowchart.display;whiteSpace=wrap;" parent="1" vertex="1">
          <mxGeometry x="-593" y="-662" width="169" height="60" as="geometry" />
        </mxCell>
        <mxCell id="WySLw5p9huwhJXmqN-Hj-254" style="edgeStyle=orthogonalEdgeStyle;rounded=0;orthogonalLoop=1;jettySize=auto;html=1;entryX=0.5;entryY=0;entryDx=0;entryDy=0;" parent="1" source="WySLw5p9huwhJXmqN-Hj-255" target="WySLw5p9huwhJXmqN-Hj-256" edge="1">
          <mxGeometry relative="1" as="geometry" />
        </mxCell>
        <mxCell id="WySLw5p9huwhJXmqN-Hj-255" value="input cNomerPc" style="html=1;strokeWidth=2;shape=manualInput;whiteSpace=wrap;rounded=1;size=26;arcSize=11;" parent="1" vertex="1">
          <mxGeometry x="-598" y="-572" width="180" height="60" as="geometry" />
        </mxCell>
        <mxCell id="WySLw5p9huwhJXmqN-Hj-256" value="Accept cNomerPc&amp;nbsp;" style="shape=parallelogram;html=1;strokeWidth=2;perimeter=parallelogramPerimeter;whiteSpace=wrap;rounded=1;arcSize=12;size=0.23;" parent="1" vertex="1">
          <mxGeometry x="-601" y="-475" width="187" height="56" as="geometry" />
        </mxCell>
        <mxCell id="WySLw5p9huwhJXmqN-Hj-257" style="edgeStyle=orthogonalEdgeStyle;rounded=0;orthogonalLoop=1;jettySize=auto;html=1;entryX=0.5;entryY=0.267;entryDx=0;entryDy=0;entryPerimeter=0;" parent="1" source="WySLw5p9huwhJXmqN-Hj-253" target="WySLw5p9huwhJXmqN-Hj-255" edge="1">
          <mxGeometry relative="1" as="geometry" />
        </mxCell>
        <mxCell id="WySLw5p9huwhJXmqN-Hj-258" value="display &quot; pilih item :&amp;nbsp;&lt;div&gt;1.paket&amp;nbsp;&lt;/div&gt;&lt;div&gt;2. batalkan &quot;&lt;/div&gt;" style="strokeWidth=2;html=1;shape=mxgraph.flowchart.display;whiteSpace=wrap;" parent="1" vertex="1">
          <mxGeometry x="-618" y="-388" width="206" height="75" as="geometry" />
        </mxCell>
        <mxCell id="WySLw5p9huwhJXmqN-Hj-259" style="edgeStyle=orthogonalEdgeStyle;rounded=0;orthogonalLoop=1;jettySize=auto;html=1;exitX=0.5;exitY=1;exitDx=0;exitDy=0;entryX=0.534;entryY=0;entryDx=0;entryDy=0;entryPerimeter=0;" parent="1" source="WySLw5p9huwhJXmqN-Hj-256" target="WySLw5p9huwhJXmqN-Hj-258" edge="1">
          <mxGeometry relative="1" as="geometry" />
        </mxCell>
        <mxCell id="WySLw5p9huwhJXmqN-Hj-260" style="edgeStyle=orthogonalEdgeStyle;rounded=0;orthogonalLoop=1;jettySize=auto;html=1;exitX=0.5;exitY=1;exitDx=0;exitDy=0;exitPerimeter=0;entryX=0.5;entryY=0;entryDx=0;entryDy=0;" parent="1" target="WySLw5p9huwhJXmqN-Hj-261" edge="1">
          <mxGeometry relative="1" as="geometry">
            <mxPoint x="-515" y="-313" as="sourcePoint" />
          </mxGeometry>
        </mxCell>
        <mxCell id="WySLw5p9huwhJXmqN-Hj-261" value="Accept nItem" style="shape=parallelogram;html=1;strokeWidth=2;perimeter=parallelogramPerimeter;whiteSpace=wrap;rounded=1;arcSize=12;size=0.23;" parent="1" vertex="1">
          <mxGeometry x="-608.5" y="-283" width="187" height="53" as="geometry" />
        </mxCell>
        <mxCell id="WySLw5p9huwhJXmqN-Hj-262" style="edgeStyle=orthogonalEdgeStyle;rounded=0;orthogonalLoop=1;jettySize=auto;html=1;entryX=0.5;entryY=0;entryDx=0;entryDy=0;entryPerimeter=0;" parent="1" source="WySLw5p9huwhJXmqN-Hj-261" edge="1">
          <mxGeometry relative="1" as="geometry">
            <mxPoint x="-515" y="-197" as="targetPoint" />
          </mxGeometry>
        </mxCell>
        <mxCell id="WySLw5p9huwhJXmqN-Hj-265" style="edgeStyle=orthogonalEdgeStyle;rounded=0;orthogonalLoop=1;jettySize=auto;html=1;entryX=0;entryY=0.5;entryDx=0;entryDy=0;entryPerimeter=0;" parent="1" source="WySLw5p9huwhJXmqN-Hj-266" target="hOKE2iDMcfGH3eZ4Ijgz-1" edge="1">
          <mxGeometry relative="1" as="geometry">
            <mxPoint x="-241" y="-151.5" as="targetPoint" />
          </mxGeometry>
        </mxCell>
        <mxCell id="07xQH1xnThTPWJ9yHDiX-1" value="yes" style="edgeLabel;html=1;align=center;verticalAlign=middle;resizable=0;points=[];" parent="WySLw5p9huwhJXmqN-Hj-265" vertex="1" connectable="0">
          <mxGeometry x="-0.1113" y="-2" relative="1" as="geometry">
            <mxPoint as="offset" />
          </mxGeometry>
        </mxCell>
        <mxCell id="hOKE2iDMcfGH3eZ4Ijgz-19" style="edgeStyle=orthogonalEdgeStyle;rounded=0;orthogonalLoop=1;jettySize=auto;html=1;" parent="1" source="WySLw5p9huwhJXmqN-Hj-266" target="hOKE2iDMcfGH3eZ4Ijgz-18" edge="1">
          <mxGeometry relative="1" as="geometry">
            <mxPoint x="-512.685" y="163" as="targetPoint" />
          </mxGeometry>
        </mxCell>
        <mxCell id="hOKE2iDMcfGH3eZ4Ijgz-20" value="no" style="edgeLabel;html=1;align=center;verticalAlign=middle;resizable=0;points=[];" parent="hOKE2iDMcfGH3eZ4Ijgz-19" vertex="1" connectable="0">
          <mxGeometry x="-0.0087" y="1" relative="1" as="geometry">
            <mxPoint as="offset" />
          </mxGeometry>
        </mxCell>
        <mxCell id="WySLw5p9huwhJXmqN-Hj-266" value="if nPaket = 1" style="strokeWidth=2;html=1;shape=mxgraph.flowchart.decision;whiteSpace=wrap;" parent="1" vertex="1">
          <mxGeometry x="-626" y="-195" width="226.63" height="87" as="geometry" />
        </mxCell>
        <mxCell id="hOKE2iDMcfGH3eZ4Ijgz-14" style="edgeStyle=orthogonalEdgeStyle;rounded=0;orthogonalLoop=1;jettySize=auto;html=1;entryX=0.5;entryY=0;entryDx=0;entryDy=0;" parent="1" source="hOKE2iDMcfGH3eZ4Ijgz-1" target="hOKE2iDMcfGH3eZ4Ijgz-3" edge="1">
          <mxGeometry relative="1" as="geometry" />
        </mxCell>
        <mxCell id="hOKE2iDMcfGH3eZ4Ijgz-1" value="display &quot; pilih paket :&amp;nbsp;&lt;div&gt;1.bronze&amp;nbsp;&lt;/div&gt;&lt;div&gt;2. silver &amp;nbsp;&lt;/div&gt;&lt;div&gt;3. gold&amp;nbsp;&lt;/div&gt;&lt;div&gt;4. lanjut &quot;&lt;/div&gt;" style="strokeWidth=2;html=1;shape=mxgraph.flowchart.display;whiteSpace=wrap;" parent="1" vertex="1">
          <mxGeometry x="-232.5" y="-187" width="206" height="75" as="geometry" />
        </mxCell>
        <mxCell id="hOKE2iDMcfGH3eZ4Ijgz-3" value="Accept nItem" style="shape=parallelogram;html=1;strokeWidth=2;perimeter=parallelogramPerimeter;whiteSpace=wrap;rounded=1;arcSize=12;size=0.23;" parent="1" vertex="1">
          <mxGeometry x="-222.5" y="-35" width="187" height="53" as="geometry" />
        </mxCell>
        <mxCell id="hOKE2iDMcfGH3eZ4Ijgz-4" style="edgeStyle=orthogonalEdgeStyle;rounded=0;orthogonalLoop=1;jettySize=auto;html=1;entryX=0.5;entryY=0;entryDx=0;entryDy=0;entryPerimeter=0;" parent="1" source="hOKE2iDMcfGH3eZ4Ijgz-3" edge="1">
          <mxGeometry relative="1" as="geometry">
            <mxPoint x="-129" y="51" as="targetPoint" />
          </mxGeometry>
        </mxCell>
        <mxCell id="hOKE2iDMcfGH3eZ4Ijgz-37" style="edgeStyle=orthogonalEdgeStyle;rounded=0;orthogonalLoop=1;jettySize=auto;html=1;entryX=0;entryY=0.5;entryDx=0;entryDy=0;" parent="1" source="hOKE2iDMcfGH3eZ4Ijgz-6" target="hOKE2iDMcfGH3eZ4Ijgz-32" edge="1">
          <mxGeometry relative="1" as="geometry" />
        </mxCell>
        <mxCell id="hOKE2iDMcfGH3eZ4Ijgz-6" value="if nPaket = 1" style="strokeWidth=2;html=1;shape=mxgraph.flowchart.decision;whiteSpace=wrap;" parent="1" vertex="1">
          <mxGeometry x="-240" y="53" width="226.63" height="87" as="geometry" />
        </mxCell>
        <mxCell id="hOKE2iDMcfGH3eZ4Ijgz-38" style="edgeStyle=orthogonalEdgeStyle;rounded=0;orthogonalLoop=1;jettySize=auto;html=1;exitX=1;exitY=0.5;exitDx=0;exitDy=0;exitPerimeter=0;" parent="1" source="hOKE2iDMcfGH3eZ4Ijgz-7" target="hOKE2iDMcfGH3eZ4Ijgz-34" edge="1">
          <mxGeometry relative="1" as="geometry" />
        </mxCell>
        <mxCell id="hOKE2iDMcfGH3eZ4Ijgz-7" value="if nPaket = 2" style="strokeWidth=2;html=1;shape=mxgraph.flowchart.decision;whiteSpace=wrap;" parent="1" vertex="1">
          <mxGeometry x="-240" y="184" width="226.63" height="87" as="geometry" />
        </mxCell>
        <mxCell id="hOKE2iDMcfGH3eZ4Ijgz-17" style="edgeStyle=orthogonalEdgeStyle;rounded=0;orthogonalLoop=1;jettySize=auto;html=1;" parent="1" source="hOKE2iDMcfGH3eZ4Ijgz-8" target="hOKE2iDMcfGH3eZ4Ijgz-15" edge="1">
          <mxGeometry relative="1" as="geometry" />
        </mxCell>
        <mxCell id="hOKE2iDMcfGH3eZ4Ijgz-39" style="edgeStyle=orthogonalEdgeStyle;rounded=0;orthogonalLoop=1;jettySize=auto;html=1;" parent="1" source="hOKE2iDMcfGH3eZ4Ijgz-8" target="hOKE2iDMcfGH3eZ4Ijgz-33" edge="1">
          <mxGeometry relative="1" as="geometry" />
        </mxCell>
        <mxCell id="hOKE2iDMcfGH3eZ4Ijgz-8" value="if nPaket = 3" style="strokeWidth=2;html=1;shape=mxgraph.flowchart.decision;whiteSpace=wrap;" parent="1" vertex="1">
          <mxGeometry x="-240" y="322" width="226.63" height="87" as="geometry" />
        </mxCell>
        <mxCell id="hOKE2iDMcfGH3eZ4Ijgz-9" style="edgeStyle=orthogonalEdgeStyle;rounded=0;orthogonalLoop=1;jettySize=auto;html=1;exitX=0.5;exitY=1;exitDx=0;exitDy=0;exitPerimeter=0;entryX=0.5;entryY=0;entryDx=0;entryDy=0;entryPerimeter=0;" parent="1" source="hOKE2iDMcfGH3eZ4Ijgz-6" target="hOKE2iDMcfGH3eZ4Ijgz-7" edge="1">
          <mxGeometry relative="1" as="geometry" />
        </mxCell>
        <mxCell id="hOKE2iDMcfGH3eZ4Ijgz-10" value="no" style="edgeLabel;html=1;align=center;verticalAlign=middle;resizable=0;points=[];" parent="hOKE2iDMcfGH3eZ4Ijgz-9" vertex="1" connectable="0">
          <mxGeometry x="-0.3939" y="2" relative="1" as="geometry">
            <mxPoint as="offset" />
          </mxGeometry>
        </mxCell>
        <mxCell id="hOKE2iDMcfGH3eZ4Ijgz-11" style="edgeStyle=orthogonalEdgeStyle;rounded=0;orthogonalLoop=1;jettySize=auto;html=1;exitX=0.5;exitY=1;exitDx=0;exitDy=0;exitPerimeter=0;entryX=0.5;entryY=0;entryDx=0;entryDy=0;entryPerimeter=0;" parent="1" source="hOKE2iDMcfGH3eZ4Ijgz-7" target="hOKE2iDMcfGH3eZ4Ijgz-8" edge="1">
          <mxGeometry relative="1" as="geometry" />
        </mxCell>
        <mxCell id="hOKE2iDMcfGH3eZ4Ijgz-12" value="no" style="edgeLabel;html=1;align=center;verticalAlign=middle;resizable=0;points=[];" parent="hOKE2iDMcfGH3eZ4Ijgz-11" vertex="1" connectable="0">
          <mxGeometry x="-0.1242" y="1" relative="1" as="geometry">
            <mxPoint y="1" as="offset" />
          </mxGeometry>
        </mxCell>
        <mxCell id="hOKE2iDMcfGH3eZ4Ijgz-42" style="edgeStyle=orthogonalEdgeStyle;rounded=0;orthogonalLoop=1;jettySize=auto;html=1;" parent="1" source="hOKE2iDMcfGH3eZ4Ijgz-15" edge="1">
          <mxGeometry relative="1" as="geometry">
            <mxPoint x="162.70588235294144" y="525.4999999999995" as="targetPoint" />
          </mxGeometry>
        </mxCell>
        <mxCell id="hOKE2iDMcfGH3eZ4Ijgz-43" value="yes" style="edgeLabel;html=1;align=center;verticalAlign=middle;resizable=0;points=[];" parent="hOKE2iDMcfGH3eZ4Ijgz-42" vertex="1" connectable="0">
          <mxGeometry x="-0.0322" y="-1" relative="1" as="geometry">
            <mxPoint as="offset" />
          </mxGeometry>
        </mxCell>
        <mxCell id="hOKE2iDMcfGH3eZ4Ijgz-46" style="edgeStyle=orthogonalEdgeStyle;rounded=0;orthogonalLoop=1;jettySize=auto;html=1;exitX=0.5;exitY=1;exitDx=0;exitDy=0;exitPerimeter=0;" parent="1" source="hOKE2iDMcfGH3eZ4Ijgz-15" target="hOKE2iDMcfGH3eZ4Ijgz-44" edge="1">
          <mxGeometry relative="1" as="geometry" />
        </mxCell>
        <mxCell id="hOKE2iDMcfGH3eZ4Ijgz-47" value="no" style="edgeLabel;html=1;align=center;verticalAlign=middle;resizable=0;points=[];" parent="hOKE2iDMcfGH3eZ4Ijgz-46" vertex="1" connectable="0">
          <mxGeometry x="-0.1939" y="2" relative="1" as="geometry">
            <mxPoint y="1" as="offset" />
          </mxGeometry>
        </mxCell>
        <mxCell id="hOKE2iDMcfGH3eZ4Ijgz-15" value="if nPaket = 4" style="strokeWidth=2;html=1;shape=mxgraph.flowchart.decision;whiteSpace=wrap;" parent="1" vertex="1">
          <mxGeometry x="-240" y="482" width="226.63" height="87" as="geometry" />
        </mxCell>
        <mxCell id="hOKE2iDMcfGH3eZ4Ijgz-16" value="no" style="edgeLabel;html=1;align=center;verticalAlign=middle;resizable=0;points=[];" parent="1" vertex="1" connectable="0">
          <mxGeometry x="-128.50499999999994" y="450" as="geometry" />
        </mxCell>
        <mxCell id="hOKE2iDMcfGH3eZ4Ijgz-22" style="edgeStyle=orthogonalEdgeStyle;rounded=0;orthogonalLoop=1;jettySize=auto;html=1;exitX=0.5;exitY=1;exitDx=0;exitDy=0;exitPerimeter=0;" parent="1" source="hOKE2iDMcfGH3eZ4Ijgz-18" target="hOKE2iDMcfGH3eZ4Ijgz-21" edge="1">
          <mxGeometry relative="1" as="geometry" />
        </mxCell>
        <mxCell id="hOKE2iDMcfGH3eZ4Ijgz-18" value="if nPaket = 2" style="strokeWidth=2;html=1;shape=mxgraph.flowchart.decision;whiteSpace=wrap;" parent="1" vertex="1">
          <mxGeometry x="-626.0000000000001" y="469" width="226.63" height="87" as="geometry" />
        </mxCell>
        <mxCell id="hOKE2iDMcfGH3eZ4Ijgz-21" value="display &quot;pesanan dibatalkan&quot;" style="strokeWidth=2;html=1;shape=mxgraph.flowchart.display;whiteSpace=wrap;" parent="1" vertex="1">
          <mxGeometry x="-615.6899999999999" y="644" width="206" height="75" as="geometry" />
        </mxCell>
        <mxCell id="hOKE2iDMcfGH3eZ4Ijgz-23" value="" style="verticalLabelPosition=bottom;verticalAlign=top;html=1;shape=mxgraph.flowchart.on-page_reference;fillColor=#f5f5f5;fontColor=#333333;strokeColor=#666666;" parent="1" vertex="1">
          <mxGeometry x="-542.69" y="764" width="60" height="60" as="geometry" />
        </mxCell>
        <mxCell id="hOKE2iDMcfGH3eZ4Ijgz-24" style="edgeStyle=orthogonalEdgeStyle;rounded=0;orthogonalLoop=1;jettySize=auto;html=1;exitX=0.5;exitY=1;exitDx=0;exitDy=0;exitPerimeter=0;entryX=0.5;entryY=0;entryDx=0;entryDy=0;entryPerimeter=0;" parent="1" source="hOKE2iDMcfGH3eZ4Ijgz-21" target="hOKE2iDMcfGH3eZ4Ijgz-23" edge="1">
          <mxGeometry relative="1" as="geometry" />
        </mxCell>
        <mxCell id="hOKE2iDMcfGH3eZ4Ijgz-26" style="edgeStyle=orthogonalEdgeStyle;rounded=0;orthogonalLoop=1;jettySize=auto;html=1;" parent="1" source="hOKE2iDMcfGH3eZ4Ijgz-25" edge="1">
          <mxGeometry relative="1" as="geometry">
            <mxPoint x="-508.3529411764705" y="-581" as="targetPoint" />
          </mxGeometry>
        </mxCell>
        <mxCell id="hOKE2iDMcfGH3eZ4Ijgz-25" value="" style="verticalLabelPosition=bottom;verticalAlign=top;html=1;shape=mxgraph.flowchart.on-page_reference;fillColor=#f5f5f5;fontColor=#333333;strokeColor=#666666;" parent="1" vertex="1">
          <mxGeometry x="-356.00000000000006" y="-611" width="60" height="60" as="geometry" />
        </mxCell>
        <mxCell id="hOKE2iDMcfGH3eZ4Ijgz-29" value="A" style="text;html=1;align=center;verticalAlign=middle;resizable=0;points=[];autosize=1;strokeColor=none;fillColor=none;" parent="1" vertex="1">
          <mxGeometry x="-525.69" y="828" width="26" height="26" as="geometry" />
        </mxCell>
        <mxCell id="hOKE2iDMcfGH3eZ4Ijgz-30" value="A" style="text;html=1;align=center;verticalAlign=middle;resizable=0;points=[];autosize=1;strokeColor=none;fillColor=none;" parent="1" vertex="1">
          <mxGeometry x="-339" y="-551" width="26" height="26" as="geometry" />
        </mxCell>
        <mxCell id="hOKE2iDMcfGH3eZ4Ijgz-35" style="edgeStyle=orthogonalEdgeStyle;rounded=0;orthogonalLoop=1;jettySize=auto;html=1;" parent="1" source="hOKE2iDMcfGH3eZ4Ijgz-32" target="hOKE2iDMcfGH3eZ4Ijgz-34" edge="1">
          <mxGeometry relative="1" as="geometry" />
        </mxCell>
        <mxCell id="hOKE2iDMcfGH3eZ4Ijgz-32" value="nTarif1= 5000" style="rounded=1;whiteSpace=wrap;html=1;absoluteArcSize=1;arcSize=14;strokeWidth=2;" parent="1" vertex="1">
          <mxGeometry x="54" y="57.25" width="211" height="78.5" as="geometry" />
        </mxCell>
        <mxCell id="hOKE2iDMcfGH3eZ4Ijgz-41" style="edgeStyle=orthogonalEdgeStyle;rounded=0;orthogonalLoop=1;jettySize=auto;html=1;exitX=0.5;exitY=1;exitDx=0;exitDy=0;" parent="1" source="hOKE2iDMcfGH3eZ4Ijgz-33" target="hOKE2iDMcfGH3eZ4Ijgz-40" edge="1">
          <mxGeometry relative="1" as="geometry" />
        </mxCell>
        <mxCell id="hOKE2iDMcfGH3eZ4Ijgz-33" value="nTarif1=10000" style="rounded=1;whiteSpace=wrap;html=1;absoluteArcSize=1;arcSize=14;strokeWidth=2;" parent="1" vertex="1">
          <mxGeometry x="54" y="326.25" width="211" height="78.5" as="geometry" />
        </mxCell>
        <mxCell id="hOKE2iDMcfGH3eZ4Ijgz-36" style="edgeStyle=orthogonalEdgeStyle;rounded=0;orthogonalLoop=1;jettySize=auto;html=1;" parent="1" source="hOKE2iDMcfGH3eZ4Ijgz-34" target="hOKE2iDMcfGH3eZ4Ijgz-33" edge="1">
          <mxGeometry relative="1" as="geometry" />
        </mxCell>
        <mxCell id="hOKE2iDMcfGH3eZ4Ijgz-34" value="nTarif1=7000" style="rounded=1;whiteSpace=wrap;html=1;absoluteArcSize=1;arcSize=14;strokeWidth=2;" parent="1" vertex="1">
          <mxGeometry x="54" y="192.5" width="211" height="70.5" as="geometry" />
        </mxCell>
        <mxCell id="hOKE2iDMcfGH3eZ4Ijgz-40" value="" style="verticalLabelPosition=bottom;verticalAlign=top;html=1;shape=offPageConnector;rounded=0;size=0.405882352941174;fillColor=#dae8fc;strokeColor=#6c8ebf;" parent="1" vertex="1">
          <mxGeometry x="129.5" y="589" width="60" height="60" as="geometry" />
        </mxCell>
        <mxCell id="hOKE2iDMcfGH3eZ4Ijgz-49" style="edgeStyle=orthogonalEdgeStyle;rounded=0;orthogonalLoop=1;jettySize=auto;html=1;" parent="1" source="hOKE2iDMcfGH3eZ4Ijgz-44" target="hOKE2iDMcfGH3eZ4Ijgz-48" edge="1">
          <mxGeometry relative="1" as="geometry" />
        </mxCell>
        <mxCell id="hOKE2iDMcfGH3eZ4Ijgz-44" value="display &quot;kode tidak valid, silahkan masukan kode yang benar&quot;&amp;nbsp;" style="strokeWidth=2;html=1;shape=mxgraph.flowchart.display;whiteSpace=wrap;" parent="1" vertex="1">
          <mxGeometry x="-229.68999999999994" y="622.9999999999999" width="206" height="75" as="geometry" />
        </mxCell>
        <mxCell id="hOKE2iDMcfGH3eZ4Ijgz-45" style="edgeStyle=orthogonalEdgeStyle;rounded=0;orthogonalLoop=1;jettySize=auto;html=1;exitX=0.5;exitY=1;exitDx=0;exitDy=0;exitPerimeter=0;" parent="1" source="hOKE2iDMcfGH3eZ4Ijgz-44" target="hOKE2iDMcfGH3eZ4Ijgz-44" edge="1">
          <mxGeometry relative="1" as="geometry" />
        </mxCell>
        <mxCell id="hOKE2iDMcfGH3eZ4Ijgz-48" value="" style="verticalLabelPosition=bottom;verticalAlign=top;html=1;shape=mxgraph.flowchart.on-page_reference;fillColor=#a20025;strokeColor=#6F0000;fontColor=#ffffff;" parent="1" vertex="1">
          <mxGeometry x="-156.68" y="749" width="60" height="60" as="geometry" />
        </mxCell>
        <mxCell id="hOKE2iDMcfGH3eZ4Ijgz-50" value="B" style="text;html=1;align=center;verticalAlign=middle;resizable=0;points=[];autosize=1;strokeColor=none;fillColor=none;" parent="1" vertex="1">
          <mxGeometry x="-141" y="804" width="26" height="26" as="geometry" />
        </mxCell>
        <mxCell id="hOKE2iDMcfGH3eZ4Ijgz-52" style="edgeStyle=orthogonalEdgeStyle;rounded=0;orthogonalLoop=1;jettySize=auto;html=1;" parent="1" source="hOKE2iDMcfGH3eZ4Ijgz-51" edge="1">
          <mxGeometry relative="1" as="geometry">
            <mxPoint x="-129" y="-78" as="targetPoint" />
          </mxGeometry>
        </mxCell>
        <mxCell id="hOKE2iDMcfGH3eZ4Ijgz-51" value="" style="verticalLabelPosition=bottom;verticalAlign=top;html=1;shape=mxgraph.flowchart.on-page_reference;fillColor=#a20025;strokeColor=#6F0000;fontColor=#ffffff;" parent="1" vertex="1">
          <mxGeometry x="-11.999999999999996" y="-108" width="60" height="60" as="geometry" />
        </mxCell>
        <mxCell id="hOKE2iDMcfGH3eZ4Ijgz-53" value="B" style="text;html=1;align=center;verticalAlign=middle;resizable=0;points=[];autosize=1;strokeColor=none;fillColor=none;" parent="1" vertex="1">
          <mxGeometry x="5" y="-54" width="26" height="26" as="geometry" />
        </mxCell>
        <mxCell id="hOKE2iDMcfGH3eZ4Ijgz-55" value="C" style="text;html=1;align=center;verticalAlign=middle;resizable=0;points=[];autosize=1;strokeColor=none;fillColor=none;" parent="1" vertex="1">
          <mxGeometry x="147" y="649" width="27" height="26" as="geometry" />
        </mxCell>
        <mxCell id="hOKE2iDMcfGH3eZ4Ijgz-58" style="edgeStyle=orthogonalEdgeStyle;rounded=0;orthogonalLoop=1;jettySize=auto;html=1;exitX=0.5;exitY=1;exitDx=0;exitDy=0;exitPerimeter=0;" parent="1" source="hOKE2iDMcfGH3eZ4Ijgz-60" target="hOKE2iDMcfGH3eZ4Ijgz-63" edge="1">
          <mxGeometry relative="1" as="geometry" />
        </mxCell>
        <mxCell id="hOKE2iDMcfGH3eZ4Ijgz-59" value="no" style="edgeLabel;html=1;align=center;verticalAlign=middle;resizable=0;points=[];" parent="hOKE2iDMcfGH3eZ4Ijgz-58" vertex="1" connectable="0">
          <mxGeometry x="-0.1939" y="2" relative="1" as="geometry">
            <mxPoint y="1" as="offset" />
          </mxGeometry>
        </mxCell>
        <mxCell id="hOKE2iDMcfGH3eZ4Ijgz-60" value="if nMakanan= 4" style="strokeWidth=2;html=1;shape=mxgraph.flowchart.decision;whiteSpace=wrap;" parent="1" vertex="1">
          <mxGeometry x="406" y="-252" width="226.63" height="87" as="geometry" />
        </mxCell>
        <mxCell id="hOKE2iDMcfGH3eZ4Ijgz-62" style="edgeStyle=orthogonalEdgeStyle;rounded=0;orthogonalLoop=1;jettySize=auto;html=1;" parent="1" source="hOKE2iDMcfGH3eZ4Ijgz-63" target="hOKE2iDMcfGH3eZ4Ijgz-65" edge="1">
          <mxGeometry relative="1" as="geometry" />
        </mxCell>
        <mxCell id="hOKE2iDMcfGH3eZ4Ijgz-63" value="display &quot;kode tidak valid, silahkan masukan kode yang benar&quot;&amp;nbsp;" style="strokeWidth=2;html=1;shape=mxgraph.flowchart.display;whiteSpace=wrap;" parent="1" vertex="1">
          <mxGeometry x="416.31000000000006" y="-111.00000000000011" width="206" height="75" as="geometry" />
        </mxCell>
        <mxCell id="hOKE2iDMcfGH3eZ4Ijgz-64" style="edgeStyle=orthogonalEdgeStyle;rounded=0;orthogonalLoop=1;jettySize=auto;html=1;exitX=0.5;exitY=1;exitDx=0;exitDy=0;exitPerimeter=0;" parent="1" source="hOKE2iDMcfGH3eZ4Ijgz-63" target="hOKE2iDMcfGH3eZ4Ijgz-63" edge="1">
          <mxGeometry relative="1" as="geometry" />
        </mxCell>
        <mxCell id="hOKE2iDMcfGH3eZ4Ijgz-65" value="" style="verticalLabelPosition=bottom;verticalAlign=top;html=1;shape=mxgraph.flowchart.on-page_reference;fillColor=#a0522d;strokeColor=#6D1F00;fontColor=#ffffff;" parent="1" vertex="1">
          <mxGeometry x="489.32" y="15" width="60" height="60" as="geometry" />
        </mxCell>
        <mxCell id="hOKE2iDMcfGH3eZ4Ijgz-66" value="D" style="text;html=1;align=center;verticalAlign=middle;resizable=0;points=[];autosize=1;strokeColor=none;fillColor=none;" parent="1" vertex="1">
          <mxGeometry x="505" y="70" width="27" height="26" as="geometry" />
        </mxCell>
        <mxCell id="hOKE2iDMcfGH3eZ4Ijgz-71" value="" style="endArrow=none;html=1;rounded=0;entryX=1;entryY=0.5;entryDx=0;entryDy=0;" parent="1" target="WySLw5p9huwhJXmqN-Hj-146" edge="1">
          <mxGeometry width="50" height="50" relative="1" as="geometry">
            <mxPoint x="1210" y="-497" as="sourcePoint" />
            <mxPoint x="870" y="-387" as="targetPoint" />
          </mxGeometry>
        </mxCell>
        <mxCell id="hOKE2iDMcfGH3eZ4Ijgz-72" value="" style="endArrow=none;html=1;rounded=0;entryX=1;entryY=0.5;entryDx=0;entryDy=0;" parent="1" edge="1">
          <mxGeometry width="50" height="50" relative="1" as="geometry">
            <mxPoint x="1210" y="-362" as="sourcePoint" />
            <mxPoint x="1014" y="-365" as="targetPoint" />
          </mxGeometry>
        </mxCell>
        <mxCell id="G2V6XdwdjyjFsb4LPoqX-1" value="" style="endArrow=none;html=1;rounded=0;" parent="1" edge="1">
          <mxGeometry width="50" height="50" relative="1" as="geometry">
            <mxPoint x="1206" y="-212" as="sourcePoint" />
            <mxPoint x="632.63" y="-208.88486360512707" as="targetPoint" />
            <Array as="points">
              <mxPoint x="864.32" y="-212" />
            </Array>
          </mxGeometry>
        </mxCell>
        <mxCell id="G2V6XdwdjyjFsb4LPoqX-22" style="edgeStyle=orthogonalEdgeStyle;rounded=0;orthogonalLoop=1;jettySize=auto;html=1;" parent="1" source="G2V6XdwdjyjFsb4LPoqX-2" target="G2V6XdwdjyjFsb4LPoqX-17" edge="1">
          <mxGeometry relative="1" as="geometry" />
        </mxCell>
        <mxCell id="G2V6XdwdjyjFsb4LPoqX-33" style="edgeStyle=orthogonalEdgeStyle;rounded=0;orthogonalLoop=1;jettySize=auto;html=1;endArrow=none;endFill=0;" parent="1" source="G2V6XdwdjyjFsb4LPoqX-2" edge="1">
          <mxGeometry relative="1" as="geometry">
            <mxPoint x="2228" y="-222" as="targetPoint" />
          </mxGeometry>
        </mxCell>
        <mxCell id="G2V6XdwdjyjFsb4LPoqX-2" value="if nMinuman = 4" style="strokeWidth=2;html=1;shape=mxgraph.flowchart.decision;whiteSpace=wrap;" parent="1" vertex="1">
          <mxGeometry x="1420" y="-267.25" width="226.63" height="90.25" as="geometry" />
        </mxCell>
        <mxCell id="G2V6XdwdjyjFsb4LPoqX-5" style="edgeStyle=orthogonalEdgeStyle;rounded=0;orthogonalLoop=1;jettySize=auto;html=1;exitX=0.5;exitY=1;exitDx=0;exitDy=0;exitPerimeter=0;" parent="1" edge="1">
          <mxGeometry relative="1" as="geometry">
            <mxPoint x="1701.9999999999995" y="-83.99999999999977" as="sourcePoint" />
            <mxPoint x="1701.9999999999995" y="-83.99999999999977" as="targetPoint" />
          </mxGeometry>
        </mxCell>
        <mxCell id="G2V6XdwdjyjFsb4LPoqX-11" style="edgeStyle=orthogonalEdgeStyle;rounded=0;orthogonalLoop=1;jettySize=auto;html=1;exitX=0.5;exitY=1;exitDx=0;exitDy=0;exitPerimeter=0;" parent="1" edge="1">
          <mxGeometry relative="1" as="geometry">
            <mxPoint x="1718.9999999999995" y="-37" as="sourcePoint" />
            <mxPoint x="1718.9999999999995" y="-37" as="targetPoint" />
          </mxGeometry>
        </mxCell>
        <mxCell id="G2V6XdwdjyjFsb4LPoqX-15" value="no" style="edgeLabel;html=1;align=center;verticalAlign=middle;resizable=0;points=[];" parent="1" vertex="1" connectable="0">
          <mxGeometry x="1535.3250000000005" y="-108.00142857142845" as="geometry" />
        </mxCell>
        <mxCell id="G2V6XdwdjyjFsb4LPoqX-16" style="edgeStyle=orthogonalEdgeStyle;rounded=0;orthogonalLoop=1;jettySize=auto;html=1;" parent="1" source="G2V6XdwdjyjFsb4LPoqX-17" target="G2V6XdwdjyjFsb4LPoqX-19" edge="1">
          <mxGeometry relative="1" as="geometry" />
        </mxCell>
        <mxCell id="G2V6XdwdjyjFsb4LPoqX-17" value="display &quot;kode tidak valid, silahkan masukan kode yang benar&quot;&amp;nbsp;" style="strokeWidth=2;html=1;shape=mxgraph.flowchart.display;whiteSpace=wrap;" parent="1" vertex="1">
          <mxGeometry x="1430.3200000000002" y="-76.43000000000012" width="206" height="75" as="geometry" />
        </mxCell>
        <mxCell id="G2V6XdwdjyjFsb4LPoqX-18" style="edgeStyle=orthogonalEdgeStyle;rounded=0;orthogonalLoop=1;jettySize=auto;html=1;exitX=0.5;exitY=1;exitDx=0;exitDy=0;exitPerimeter=0;" parent="1" source="G2V6XdwdjyjFsb4LPoqX-17" target="G2V6XdwdjyjFsb4LPoqX-17" edge="1">
          <mxGeometry relative="1" as="geometry" />
        </mxCell>
        <mxCell id="G2V6XdwdjyjFsb4LPoqX-19" value="" style="verticalLabelPosition=bottom;verticalAlign=top;html=1;shape=mxgraph.flowchart.on-page_reference;fillColor=#fff2cc;strokeColor=#d6b656;" parent="1" vertex="1">
          <mxGeometry x="1503.33" y="49.57" width="60" height="60" as="geometry" />
        </mxCell>
        <mxCell id="G2V6XdwdjyjFsb4LPoqX-20" value="F" style="text;html=1;align=center;verticalAlign=middle;resizable=0;points=[];autosize=1;strokeColor=none;fillColor=none;" parent="1" vertex="1">
          <mxGeometry x="1520.01" y="104.57" width="25" height="26" as="geometry" />
        </mxCell>
        <mxCell id="G2V6XdwdjyjFsb4LPoqX-23" value="nTotalTarif = nTarif1+nTarif2+nTarif3" style="rounded=1;whiteSpace=wrap;html=1;absoluteArcSize=1;arcSize=14;strokeWidth=2;" parent="1" vertex="1">
          <mxGeometry x="2111" y="74.5" width="220" height="81.75" as="geometry" />
        </mxCell>
        <mxCell id="G2V6XdwdjyjFsb4LPoqX-24" style="edgeStyle=orthogonalEdgeStyle;rounded=0;orthogonalLoop=1;jettySize=auto;html=1;exitX=0.5;exitY=1;exitDx=0;exitDy=0;exitPerimeter=0;entryX=0.5;entryY=0;entryDx=0;entryDy=0;" parent="1" source="G2V6XdwdjyjFsb4LPoqX-25" target="G2V6XdwdjyjFsb4LPoqX-23" edge="1">
          <mxGeometry relative="1" as="geometry" />
        </mxCell>
        <mxCell id="G2V6XdwdjyjFsb4LPoqX-25" value="display &quot; total pembayaran &quot;&amp;nbsp;" style="strokeWidth=2;html=1;shape=mxgraph.flowchart.display;whiteSpace=wrap;" parent="1" vertex="1">
          <mxGeometry x="2094" y="-48" width="256" height="78.75" as="geometry" />
        </mxCell>
        <mxCell id="G2V6XdwdjyjFsb4LPoqX-26" value="display &quot; cNomerPc, cTotalTarif &quot;" style="strokeWidth=2;html=1;shape=mxgraph.flowchart.display;whiteSpace=wrap;" parent="1" vertex="1">
          <mxGeometry x="2078" y="198.5" width="288" height="93" as="geometry" />
        </mxCell>
        <mxCell id="G2V6XdwdjyjFsb4LPoqX-27" value="stop" style="strokeWidth=2;html=1;shape=mxgraph.flowchart.start_1;whiteSpace=wrap;" parent="1" vertex="1">
          <mxGeometry x="2111" y="344.5" width="222.5" height="97" as="geometry" />
        </mxCell>
        <mxCell id="G2V6XdwdjyjFsb4LPoqX-28" style="edgeStyle=orthogonalEdgeStyle;rounded=0;orthogonalLoop=1;jettySize=auto;html=1;exitX=0.5;exitY=1;exitDx=0;exitDy=0;entryX=0.5;entryY=0;entryDx=0;entryDy=0;entryPerimeter=0;" parent="1" source="G2V6XdwdjyjFsb4LPoqX-23" target="G2V6XdwdjyjFsb4LPoqX-26" edge="1">
          <mxGeometry relative="1" as="geometry" />
        </mxCell>
        <mxCell id="G2V6XdwdjyjFsb4LPoqX-29" style="edgeStyle=orthogonalEdgeStyle;rounded=0;orthogonalLoop=1;jettySize=auto;html=1;exitX=0.5;exitY=1;exitDx=0;exitDy=0;exitPerimeter=0;entryX=0.5;entryY=0;entryDx=0;entryDy=0;entryPerimeter=0;" parent="1" source="G2V6XdwdjyjFsb4LPoqX-26" target="G2V6XdwdjyjFsb4LPoqX-27" edge="1">
          <mxGeometry relative="1" as="geometry" />
        </mxCell>
      </root>
    </mxGraphModel>
  </diagram>
</mxfile>
